<svg id="Camada_1" data-name="Camada 1" xmlns="http://www.w3.org/2000/svg" xmlns:xlink="http://www.w3.org/1999/xlink" viewBox="0 0 456.467 296.795"><defs><linearGradient id="Gradiente_sem_nome_4" x1="65.875" y1="115.398" x2="286.784" y2="336.307" gradientUnits="userSpaceOnUse"><stop offset="0.123" stop-color="#fe012f"/><stop offset="0.955" stop-color="#fe8e04"/></linearGradient><linearGradient id="Gradiente_sem_nome_4-2" x1="179.479" y1="1.794" x2="400.388" y2="222.703" xlink:href="#Gradiente_sem_nome_4"/><linearGradient id="Gradiente_sem_nome_4-3" x1="184.546" y1="-3.273" x2="405.455" y2="217.636" xlink:href="#Gradiente_sem_nome_4"/><linearGradient id="Gradiente_sem_nome_4-4" x1="58.333" y1="122.94" x2="279.242" y2="343.849" xlink:href="#Gradiente_sem_nome_4"/><linearGradient id="Gradiente_sem_nome_4-5" x1="144.83" y1="36.443" x2="365.739" y2="257.352" xlink:href="#Gradiente_sem_nome_4"/><linearGradient id="Gradiente_sem_nome_4-6" x1="139.404" y1="41.868" x2="360.314" y2="262.777" xlink:href="#Gradiente_sem_nome_4"/><linearGradient id="Gradiente_sem_nome_4-7" x1="238.725" y1="-57.452" x2="459.634" y2="163.457" xlink:href="#Gradiente_sem_nome_4"/><linearGradient id="Gradiente_sem_nome_4-8" x1="115.165" y1="66.108" x2="336.074" y2="287.017" xlink:href="#Gradiente_sem_nome_4"/><linearGradient id="Gradiente_sem_nome_4-9" x1="113.477" y1="67.796" x2="334.386" y2="288.705" xlink:href="#Gradiente_sem_nome_4"/></defs><path d="M41.3,164.3c-17.2,0-30-6-36.7-11.3-3.7-3-4.4-5.3-2.4-9,1.4-2.6,2.7-5.3,4-7.9,2.3-4.6,4.5-5.4,9.1-2.7,8.7,5.1,17.8,8.2,28.2,7.8,16.1-.3,21.591-10.018,21.8-22.3-3.5,4.1-8.4,7.7-20.7,7.8-11.964-.427-20.8-4.3-27.3-9.3C3.3,106.9-1.9,92.1.7,75.4c2.8-18.5,13.4-31.6,32-37.2,12.6-3.8,24.3-.9,34.6,8.9-.1-4,.3-6.5,2-7.8,1.7-1.2,5.6-1.3,8-1.2,12.9.1,12.6-.5,12.5,8.4-.1,18.5.2,45-.2,63.5C89.8,134,82.2,164.3,41.3,164.3ZM66.3,82c.1-13.4-8.7-22.6-21.2-22.9-12.4-.3-22.1,8.6-22,22.7.1,14.7,9.3,23,21.9,23.1C56.8,105.1,66.4,96.1,66.3,82Z" style="fill:url(#Gradiente_sem_nome_4)"/><path d="M363.4,283.846c2.126-3.17,5.365-8,7.7-11.5a4.474,4.474,0,0,1,6.524-1.019c2.859,2.308,5.931,3.99,9.629,3.99a9.1,9.1,0,0,0,8.033-4.237,88.031,88.031,0,0,0,6.911-13.263s-23-52.9-33.5-76.8c-3-6.8-2.7-7.2,4.6-7.2,4.7,0,9.3.2,14-.1,3.4-.2,5,1.3,6.2,4.3,6.2,15.8,19.6,50.5,19.6,50.5,2.6-7.5,5.5-15.2,7.9-21.9,3.3-9.4,6.8-18.7,9.8-28.2,1.2-3.6,3.1-5,6.9-4.8,4.3.3,8.6.1,13,.1,5.9,0,6.9,1.6,4.7,7.1-5.3,13.3-28,73.6-34.8,90-5.114,11.659-13.841,25.977-32.046,25.977-9.78,0-17.667-1.864-24.152-6.885A4.5,4.5,0,0,1,363.4,283.846Z" style="fill:url(#Gradiente_sem_nome_4-2)"/><path d="M259.792,45.9c5.113-5.6,14.848-9.2,22.616-9.2,11.5,0,23.008,4.6,32.546,16.5,12.192,15,12.291,44.7-1.18,59.6-7.375,8.7-15.929,14.6-30.186,14.6a36.164,36.164,0,0,1-25.467-10.1c-.59-.5-.2,4.9-1.18,6.6-1.475,2.8-18.092,2.6-19.764-.2a8.728,8.728,0,0,1-.885-4.2c0-36.9,0-74.9-.1-111.8,0-4.5,1.967-6.3,6.2-6.2,3.638.1,7.177.3,10.816.1,4.719-.2,6.292,2.1,6.292,6.6C259.5,19.1,259.694,45.5,259.792,45.9Zm20.256,13.3c-11.8-.1-20.846,8.9-21.141,22.8-.294,13.2,9.243,23.3,21.239,23.3,12-.1,20.944-9.9,21.042-23,.1-13.5-8.751-23.1-21.14-23.1Z" style="fill:url(#Gradiente_sem_nome_4-3)"/><path d="M159.694,252.918c0,12.4.1,23.8,0,35.2-.1,8.4-.2,8.4-8.7,8.4-3,0-6-.2-9,0-3.9.2-5.2-1.8-5.2-5.4v-112.2c0-3.7,1.4-5.6,5.3-5.3,2.5.2,7,.1,9.5,0,6.9-.1,6.5,2,6.5,8.6,24.1-22.9,59.6-5.7,66,23.6,4.8,22-4.5,42.9-23.2,52.2-12.3,6-24.4,5.9-36.1-1.7C163.394,255.318,162.094,254.418,159.694,252.918Zm-.4-36.2c-.1,13.1,9.3,23.5,21.6,23.3,12.9-.2,21.9-9.6,21.7-23.1-.2-13-7.1-22.4-20.7-22.9-13.2-.5-22.5,9.2-22.6,22.7Z" style="fill:url(#Gradiente_sem_nome_4-4)"/><path d="M336.594,181.718c1.1-8.1-.1-8.2,8.9-8.1,2.7,0,5.3.2,8,0,4.5-.5,5.9,2,5.9,5.9v75c0,4.2-1.8,6.5-6.4,6.1-2.3-.2-4.7,0-7,0-8,0-9.6.1-9.6-8.8-4.9,5.9-13.1,10-23.1,10.5-12.4-.3-17.9-2.4-26.4-9.3-23.9-19.5-21.9-58,4-74.8,13.1-8.5,29.2-9,42,1C333.894,179.918,334.994,180.618,336.594,181.718Zm-43,35c0,13.6,9,23.7,21.3,23.4,12.6-.3,21.5-9.4,21.6-23.3.1-15.1-11.5-23-21.8-23.1C302.094,193.718,292.094,206.018,293.594,216.718Z" style="fill:url(#Gradiente_sem_nome_4-5)"/><path d="M224.6,81.9c-.2,26.1-19.2,45.5-44.9,45.6-25.9.1-45.3-20.2-44.9-46.4.3-23.2,19.2-44.6,45.1-44.3C206.7,37.1,224.5,57.8,224.6,81.9Zm-23.3,1c.3-13-8.7-23.4-20.5-23.7-12.9-.3-22.7,9-23.1,21.9-.4,13.1,9.3,24,21.5,24.2S200.9,95.7,201.3,82.9Z" style="fill:url(#Gradiente_sem_nome_4-6)"/><path d="M333.5,81.8c0-27,20.7-45.2,44.9-44.9,27.4.3,45.2,20.7,44.6,46.2s-19.4,44.3-45.3,44.1C352.4,127.1,333,107.9,333.5,81.8Zm66.4.1c-.1-13.6-9.2-22.8-22.5-22.8-11.4-.1-22,10.1-21.2,24.7a22.5,22.5,0,0,0,22.6,21.5C390.9,105.1,400,95,399.9,81.9Z" style="fill:url(#Gradiente_sem_nome_4-7)"/><path d="M259.494,199.118c0,18.5-.1,37.1.1,55.6,0,4.3-1.6,6-5.8,5.8a100.908,100.908,0,0,0-11,0c-4.8.3-6.6-2-6.6-6.5v-109.2c0-6.3.9-7.2,7.1-7.3,3.5,0,7,.1,10.5,0,4.3-.2,5.8,1.7,5.8,5.9C259.394,162.018,259.494,180.618,259.494,199.118Z" style="fill:url(#Gradiente_sem_nome_4-8)"/><path d="M101.1,64.2V7.1c0-6.8,2.7-9.1,11.1-5.4,9.7,4.2,12.2,5.2,12.2,13.1,0,30.9,0,65.2-.3,97.1-.1,6.2.3,8.9-7.3,12.3-1.6.7-4.7,2.3-7,3.2-4.6,1.9-8.8,0-8.7-6.7.1-13.4,0-26.8-.1-40.2C101,75.1,101,69.7,101.1,64.2Z" style="fill:url(#Gradiente_sem_nome_4-9)"/></svg>