<?xml version="1.0" encoding="UTF-8" standalone="no"?>
<svg
   xmlns="http://www.w3.org/2000/svg"
   version="1.0"
   id="Layer_1"
   x="0px"
   y="0px"
   width="999.99957"
   height="285.47845"
   viewBox="0 0 999.99957 285.47847"
   xml:space="preserve">
  <g>
    <path
      d="M 1458.2986,257.71621 V 123.83587 h 81.8553 v 133.88034 h 122.4554 v 89.25355 h -122.4554 v 133.52331 h -81.8553 V 346.96976 h -122.7827 v -89.25355 z"
      transform="matrix(0.59343609,0,0,0.52120939,13.347199,-3.2856471)"
      style="fill:#fff;stroke-width:3.64691"/>
    <path
      d="m 661.90785,80.273765 h 30.55079 c 18.39282,0 30.16111,9.508154 30.16111,26.108455 0,18.08108 -11.76829,29.84937 -30.16111,29.84937 h -30.55079 z m 52.60659,92.353795 c 31.64189,-4.05265 57.75035,-31.25221 57.75035,-65.85566 0,-44.890959 -30.55079,-69.518638 -79.80615,-69.518638 H 612.96423 V 263.18884 h 48.94362 v -90.56128 l 60.7119,90.48334 H 779.279 Z"
      style="fill:#fff;stroke-width:0.779357"/>
    <polygon
      points="409.3,104.8 409.3,47.7 218.1,47.7 218.1,104.8 281.8,104.8 281.8,337.5 345.6,337.5 345.6,104.8 "
      transform="matrix(0.77935694,0,0,0.77935694,0,0.07793569)"
      style="fill:#fff"/>
    <path
      d="M 78.01363,120.41065 C 63.283784,113.78611 57.750349,106.46016 57.750349,96.874068 c 0,-11.066869 9.196412,-20.263281 23.926258,-19.873602 12.85939,0.311742 22.835163,7.325955 29.849373,23.926254 l 42.31908,-18.782499 c -11.76829,-30.161113 -35.69455,-47.77458 -74.272716,-47.77458 -40.838304,0 -70.9994177,26.887814 -70.9994177,62.894105 0,24.627684 12.1579687,44.111604 40.8383037,58.529704 l 31.641892,15.82095 c 17.613467,8.88467 26.108458,15.43127 26.108458,28.29066 0,13.95048 -11.378612,23.92625 -26.108458,23.92625 -15.820946,0 -30.161114,-8.88467 -36.785648,-28.68033 L 0,208.01037 c 10.287512,37.17532 40.838304,58.91938 80.585508,58.91938 43.020502,0 76.143172,-27.58923 76.143172,-67.33644 0,-30.55079 -16.52237,-50.81407 -48.24219,-65.0763 z"
      style="fill:#fff;stroke-width:0.779357"/>
    <path
      d="M 599.71517,108.9541 H 485.07176 L 449.61102,0 414.15028,108.9541 H 299.50687 l 91.96412,67.49231 c 0,0 44.9689,-29.61556 99.44595,-40.76037 -80.3517,59.30907 -123.99569,118.15052 -123.99569,118.15052 v 0 0 l -10.05371,31.64189 92.74348,-67.33644 92.74347,67.33644 -35.3828,-109.03204 z"
      style="fill:#fff;stroke-width:0.779357"/>
  </g>
</svg>